<?xml version="1.0" encoding="UTF-8" standalone="no"?>
<!-- Created with Inkscape (http://www.inkscape.org/) -->

<svg
   width="400"
   height="400"
   viewBox="0 0 400 400"
   version="1.1"
   id="svg5"
   inkscape:export-filename="hype2.png"
   inkscape:export-xdpi="96"
   inkscape:export-ydpi="96"
   inkscape:version="1.2.2 (b0a8486541, 2022-12-01)"
   sodipodi:docname="hype_logo.svg"
   xmlns:inkscape="http://www.inkscape.org/namespaces/inkscape"
   xmlns:sodipodi="http://sodipodi.sourceforge.net/DTD/sodipodi-0.dtd"
   xmlns="http://www.w3.org/2000/svg"
   xmlns:svg="http://www.w3.org/2000/svg">
  <sodipodi:namedview
     id="namedview7"
     pagecolor="#505050"
     bordercolor="#eeeeee"
     borderopacity="1"
     inkscape:showpageshadow="0"
     inkscape:pageopacity="0"
     inkscape:pagecheckerboard="0"
     inkscape:deskcolor="#505050"
     inkscape:document-units="px"
     showgrid="false"
     inkscape:zoom="1.2011022"
     inkscape:cx="101.15709"
     inkscape:cy="193.15592"
     inkscape:window-width="1920"
     inkscape:window-height="1011"
     inkscape:window-x="0"
     inkscape:window-y="32"
     inkscape:window-maximized="1"
     inkscape:current-layer="layer1" />
  <defs
     id="defs2" />
  <g
     inkscape:label="Layer 1"
     inkscape:groupmode="layer"
     id="layer1">
    <path
       style="fill:#dcb42c;fill-opacity:1;stroke:#000000;stroke-width:0;stroke-dasharray:none"
       d="M 173.62031,375.79673 C 83.387696,361.52956 17.927436,281.5344 22.510527,191.13429 24.7811,146.34749 42.750406,105.96919 74.572661,74.146927 100.10143,48.618164 129.422,32.76161 165.71697,24.856153 c 15.75961,-3.43261 53.10239,-3.466766 69.03124,-0.06317 36.44587,7.787663 64.84121,23.192603 91.0385,49.389875 26.19354,26.193537 41.58137,54.554147 49.39548,91.038487 3.38468,15.80311 3.37699,53.17408 -0.0146,69.10112 -7.58569,35.62691 -23.89655,65.75747 -49.30071,91.07174 -14.64533,14.59351 -33.79762,28.22517 -50.08305,35.64668 -32.00847,14.58675 -69.23146,19.96297 -102.16394,14.75583 z"
       id="path1252"
       inkscape:label="path1252" />
  </g>
</svg>
